<?xml version="1.0" encoding="utf-8"?>
<!-- Generator: Adobe Illustrator 16.0.0, SVG Export Plug-In . SVG Version: 6.00 Build 0)  -->
<!DOCTYPE svg PUBLIC "-//W3C//DTD SVG 1.1//EN" "http://www.w3.org/Graphics/SVG/1.1/DTD/svg11.dtd">
<svg version="1.1" id="Layer_1" xmlns="http://www.w3.org/2000/svg" xmlns:xlink="http://www.w3.org/1999/xlink" x="0px" y="0px"
	 width="384px" height="134px" viewBox="0 0 384 134" enable-background="new 0 0 384 134" xml:space="preserve">
<g>
	<path fill="#FFFFFF" d="M0.562,134.989V0.627h35.068c7.952,0,14.476,6.524,14.476,14.476v105.41
		c0,7.952-6.524,14.476-14.476,14.476H0.562z M35.223,13.064H15.446v109.488h19.777V13.064z"/>
	<path fill="#FFFFFF" d="M66.419,134.989V0.627h42.205v12.438H81.303v48.321h22.835v12.641H81.303v48.525h27.321v12.437H66.419z"/>
	<path fill="#FFFFFF" d="M121.266,134.989V0.627h42.409v12.438h-27.525v48.642h23.039v12.641h-23.039v60.642H121.266z"/>
	<path fill="#FFFFFF" d="M175.297,134.989V0.627h14.884v134.362H175.297z"/>
	<path fill="#FFFFFF" d="M242.172,134.989v-59.03h-20.389v59.03h-14.884V15.103c0-7.952,6.524-14.476,14.477-14.476h21.408
		c7.951,0,14.476,6.524,14.476,14.476v119.886H242.172z M242.172,13.064h-20.389v50.458h20.389V13.064z"/>
	<path fill="#FFFFFF" d="M300.688,0.627h11.01c7.952,0,14.477,6.524,14.477,14.476v119.886h-15.292V13.268h-22.02v121.721h-14.884
		V0.627h14.884"/>
	<path fill="#FFFFFF" d="M353.496,134.989V13.268H337.39V0.627h47.302v12.641h-16.107v121.721H353.496z"/>
</g>
</svg>
